<?xml version="1.0" standalone="no"?>
<!DOCTYPE svg PUBLIC "-//W3C//DTD SVG 20010904//EN"
 "http://www.w3.org/TR/2001/REC-SVG-20010904/DTD/svg10.dtd">
<svg version="1.0" xmlns="http://www.w3.org/2000/svg"
 width="1024.000000pt" height="1024.000000pt" viewBox="0 0 1024.000000 1024.000000"
 preserveAspectRatio="xMidYMid meet">

<g transform="translate(0.000000,1024.000000) scale(0.100000,-0.100000)"
fill="#000000" stroke="none">
<path d="M0 5120 l0 -5120 5120 0 5120 0 0 5120 0 5120 -5120 0 -5120 0 0
-5120z m8168 2258 l2 -936 -95 -7 c-53 -4 -98 -5 -101 -2 -3 2 -5 381 -4 841
l1 836 -2896 0 -2895 0 0 -743 c0 -918 8 -1377 25 -1371 24 9 45 77 64 202 49
318 238 699 507 1022 173 208 440 439 654 564 284 167 438 210 795 222 190 7
225 1 225 -40 0 -14 -4 -27 -9 -30 -5 -3 -91 -24 -192 -47 -420 -93 -692 -217
-969 -441 -238 -191 -411 -393 -569 -661 -154 -263 -277 -597 -321 -872 -20
-123 -26 -135 -68 -135 -40 0 -122 36 -122 53 0 7 -5 5 -10 -3 -6 -9 -10 -122
-10 -267 l0 -253 -72 0 c-82 -1 -108 -13 -108 -54 0 -26 0 -26 78 -26 47 0 83
-5 90 -12 9 -9 12 -351 12 -1476 0 -1331 1 -1464 16 -1458 9 3 1311 6 2895 6
l2879 0 0 1150 0 1150 100 0 100 0 0 -1260 0 -1259 -3095 -1 -3095 0 -1 117
c0 65 1 406 2 758 2 352 2 1029 1 1505 -2 1120 -3 1280 -2 2688 l0 1182 3093
-2 3092 -3 3 -937z m-5505 563 c64 -15 143 -75 177 -133 68 -120 60 -221 -25
-316 -113 -125 -277 -126 -389 -1 -39 43 -76 134 -76 188 0 88 55 179 137 227
68 40 113 49 176 35z m4953 -27 c67 -32 124 -123 124 -198 0 -66 -88 -168
-155 -180 -42 -8 -104 7 -138 34 -14 11 -28 20 -32 20 -4 0 -77 -68 -163 -151
-87 -83 -172 -159 -189 -167 -38 -18 -39 -22 -17 -63 20 -39 20 -114 0 -161
-21 -50 -20 -58 8 -58 21 0 138 -76 317 -206 l46 -34 38 30 c32 25 47 30 94
30 89 0 145 -47 172 -142 20 -74 -21 -155 -95 -189 -60 -27 -96 -24 -152 14
-70 47 -94 87 -94 158 0 38 -4 59 -12 59 -6 0 -43 24 -82 53 -39 30 -105 77
-146 106 -41 29 -86 66 -100 82 l-25 28 -58 -39 c-93 -63 -181 -63 -277 -1
-77 50 -115 176 -86 289 7 25 5 32 -5 32 -8 0 -62 36 -119 80 -58 44 -144 110
-192 147 -55 41 -88 73 -88 85 0 22 5 23 -54 -7 -27 -14 -66 -25 -85 -25 -83
1 -181 100 -181 183 0 51 33 121 69 147 88 62 199 31 252 -71 21 -42 25 -86
15 -145 -7 -40 -6 -42 30 -63 34 -20 307 -218 376 -273 26 -20 29 -20 45 -5
31 28 106 57 148 57 56 0 103 -15 159 -51 46 -29 50 -29 59 -12 12 24 180 186
280 271 56 47 76 70 71 81 -4 9 -9 39 -11 66 -12 134 136 244 253 189z m-806
-69 l0 -65 60 0 c33 0 60 -3 60 -7 0 -5 3 -18 6 -30 6 -22 4 -23 -55 -23 -60
0 -61 -1 -61 -27 0 -62 -12 -103 -30 -103 -19 0 -30 36 -30 96 l0 34 -59 0
c-52 0 -59 2 -65 23 -13 48 -10 50 59 44 l65 -6 0 64 c0 63 1 65 25 65 24 0
25 -2 25 -65z m-3650 -14 c0 -78 -3 -81 -75 -81 -72 0 -75 3 -75 81 l0 69 75
0 75 0 0 -69z m1494 -17 c19 -7 21 -45 4 -62 -17 -17 -65 -15 -72 4 -13 34 -6
53 22 57 15 2 28 5 29 6 1 0 8 -2 17 -5z m-161 -51 c6 -34 -5 -50 -45 -58 -33
-8 -48 5 -48 41 0 22 30 42 66 43 16 1 23 -6 27 -26z m983 -107 c-9 -26 -16
-59 -16 -72 0 -47 -17 -23 -28 39 -7 34 -15 74 -18 90 -5 21 -3 27 10 27 8 0
19 12 22 26 6 25 7 24 26 -18 18 -40 18 -46 4 -92z m-1176 58 c16 -41 12 -50
-30 -63 -21 -6 -46 -18 -54 -26 -13 -13 -16 -10 -29 32 -7 27 -12 49 -11 51 2
4 92 29 107 31 4 1 12 -11 17 -25z m1030 -16 c0 -15 -19 -8 -29 11 -14 25 0
37 16 15 7 -10 13 -21 13 -26z m-1260 -59 c6 -23 10 -42 8 -43 -2 -1 -27 -12
-56 -24 l-53 -21 -15 34 c-8 19 -14 38 -14 42 0 7 91 49 112 52 4 1 12 -17 18
-40z m-225 -101 l15 -38 -45 -21 c-25 -12 -48 -25 -51 -30 -11 -18 -24 -8 -44
32 -12 23 -20 42 -18 44 14 14 114 61 120 56 4 -3 14 -23 23 -43z m985 -37 c0
-28 -5 -53 -10 -56 -6 -4 -43 -10 -83 -15 -255 -30 -589 -146 -830 -290 -280
-166 -468 -351 -673 -660 -168 -251 -304 -613 -359 -950 -8 -52 -18 -186 -22
-297 l-6 -203 -49 0 -48 0 0 163 c0 282 22 441 95 707 95 344 259 657 472 902
104 120 177 188 300 279 264 197 577 342 893 413 130 29 147 31 152 14 3 -8
14 -5 34 9 33 23 55 30 102 32 32 1 32 1 32 -48z m-1199 -93 c10 -25 10 -33 0
-36 -7 -2 -32 -19 -57 -38 -24 -19 -48 -34 -52 -34 -12 1 -46 84 -36 87 5 2
32 18 59 37 55 37 65 35 86 -16z m3959 -139 l0 -72 60 7 c46 5 60 4 60 -6 0
-7 3 -23 6 -35 6 -22 4 -23 -60 -23 l-67 0 7 -75 7 -75 -31 0 -31 0 -3 73 -3
72 -57 3 c-57 3 -58 4 -58 32 0 30 1 30 55 30 l55 0 0 70 0 70 30 0 30 0 0
-71z m-1781 12 c28 -39 26 -76 -4 -106 -49 -50 -135 -17 -135 53 0 50 32 82
81 82 30 0 42 -6 58 -29z m338 7 c48 -45 16 -138 -49 -138 -18 0 -38 10 -53
26 -36 39 -36 75 -2 112 27 29 73 29 104 0z m-2717 -60 c0 -5 -4 -8 -9 -8 -5
0 -31 -20 -59 -45 -27 -25 -52 -45 -54 -45 -2 0 -15 14 -28 32 l-23 32 59 52
59 52 27 -31 c15 -18 27 -35 28 -39z m-912 -50 c3 -76 2 -78 -23 -84 -14 -3
-46 -2 -72 2 l-48 9 -3 72 c-3 72 -3 72 25 76 15 2 48 4 73 3 l45 -1 3 -77z
m1996 10 c-19 -9 -20 -13 -8 -36 7 -15 14 -56 16 -91 l3 -65 -100 -37 c-115
-44 -271 -123 -362 -184 -35 -23 -118 -88 -184 -145 -149 -127 -271 -283 -391
-500 -95 -170 -171 -427 -197 -669 -5 -50 -14 -87 -23 -92 -18 -12 -218 -11
-218 1 0 40 87 453 115 545 109 360 363 727 656 946 191 144 392 247 604 310
95 29 124 34 89 17z m-1325 -122 c26 -28 26 -29 -37 -103 l-45 -52 -32 26 -33
27 56 62 c32 35 60 63 63 64 3 0 16 -11 28 -24z m1858 -102 c-3 -3 -12 -4 -19
-1 -8 3 -5 6 6 6 11 1 17 -2 13 -5z m-2037 -119 l23 -25 -43 -62 c-24 -35 -45
-65 -47 -67 -5 -7 -73 27 -73 36 0 5 15 27 33 50 17 23 40 54 50 68 22 31 28
31 57 0z m1980 -75 l0 -90 -32 0 c-51 0 -199 -28 -296 -56 -136 -39 -331 -140
-441 -230 l-94 -76 -44 44 c-25 24 -49 51 -54 61 -32 58 223 238 483 341 130
51 312 91 436 95 l42 1 0 -90z m250 75 c277 -40 516 -138 742 -307 65 -48 118
-93 118 -99 0 -15 -100 -119 -115 -119 -7 0 -20 9 -31 21 -29 32 -162 123
-245 168 -167 90 -343 145 -536 166 l-63 7 0 89 c0 65 3 89 13 89 6 0 59 -7
117 -15z m1608 -192 l3 -63 43 0 c46 0 72 -19 62 -45 -4 -11 -20 -15 -56 -15
l-50 0 0 -57 c0 -66 -9 -86 -36 -81 -16 3 -20 15 -24 72 l-5 70 -62 -3 -63 -2
0 30 0 31 65 0 65 0 0 58 c0 65 5 74 35 70 17 -3 20 -11 23 -65z m-3976 -79
c-1 -22 -55 -124 -65 -124 -7 0 -23 9 -36 19 l-23 18 32 67 32 67 30 -19 c16
-11 30 -23 30 -28z m2238 -46 l0 -60 -67 7 c-38 4 -69 8 -69 8 -1 1 1 25 3 54
l5 52 57 3 c31 2 59 2 64 0 4 -2 7 -30 7 -64z m-1200 -17 c16 -30 12 -66 -9
-85 -26 -24 -60 -17 -85 17 -23 32 -16 53 25 74 34 18 57 16 69 -6z m1440 -5
c0 -41 -11 -56 -40 -56 -35 0 -54 22 -46 55 5 21 12 25 46 25 36 0 40 -3 40
-24z m961 -3 c16 -43 8 -76 -23 -87 -40 -14 -78 14 -78 57 0 42 15 57 57 57
27 0 35 -5 44 -27z m-1541 -18 c0 -32 -46 -58 -61 -34 -5 8 -9 24 -9 37 0 19
5 22 35 22 31 0 35 -3 35 -25z m741 -14 c20 -16 22 -23 14 -47 -12 -33 -30
-39 -68 -25 -22 9 -27 17 -27 44 0 19 3 37 7 40 13 13 51 7 74 -12z m-893 -36
c6 -53 -71 -81 -84 -30 -8 34 21 67 55 63 20 -2 27 -9 29 -33z m1040 -31 c39
-11 23 -74 -19 -74 -25 0 -42 26 -35 55 7 26 15 29 54 19z m-1212 -41 c22 -29
16 -40 -26 -57 -78 -31 -90 -17 -35 39 41 40 43 41 61 18z m544 -66 l0 -74
-80 -11 c-152 -22 -329 -102 -418 -190 l-44 -43 -44 48 c-74 80 -74 76 8 133
105 74 181 114 283 149 73 25 210 54 283 60 8 1 12 -20 12 -72z m360 31 c101
-28 206 -74 275 -121 115 -78 135 -93 135 -101 0 -5 -19 -34 -42 -65 -23 -31
-43 -58 -45 -60 -1 -2 -27 19 -57 46 -98 90 -263 162 -422 184 l-84 12 0 74 0
75 68 -8 c37 -3 114 -20 172 -36z m-2615 20 c31 -14 31 -32 3 -95 -23 -47 -24
-48 -54 -38 -17 5 -32 15 -33 20 -3 16 41 125 50 125 4 0 20 -5 34 -12z m1249
-72 l49 -45 -26 -33 c-167 -206 -271 -442 -303 -682 -9 -67 -18 -127 -20 -133
-2 -9 -29 -13 -89 -13 l-85 0 0 41 c0 68 29 244 56 337 53 183 160 387 278
525 65 76 62 76 140 3z m2256 17 c89 -102 209 -308 265 -458 32 -84 72 -257
80 -340 3 -38 9 -82 11 -97 l6 -28 -90 0 -89 0 -6 73 c-8 86 -53 262 -97 375
-33 86 -128 251 -199 344 -22 30 -41 58 -41 62 0 10 101 116 111 116 4 0 26
-21 49 -47z m-436 8 c21 -23 18 -49 -6 -65 -14 -8 -22 -6 -40 11 -19 19 -20
26 -10 48 14 30 33 32 56 6z m-1466 -43 c-4 -28 -45 -38 -55 -13 -7 19 12 35
40 35 13 0 18 -6 15 -22z m4550 -29 c3 -26 2 -26 -75 -33 -43 -3 -334 -8 -648
-11 -313 -3 -796 -7 -1072 -10 l-503 -4 -30 45 -31 44 1178 -2 1178 -3 3 -26z
m-2929 -31 l35 -41 -40 -33 c-21 -19 -43 -34 -48 -34 -12 0 -56 41 -56 51 0
11 62 99 69 99 3 0 21 -19 40 -42z m-1755 1 c32 -37 33 -56 4 -86 -29 -31 -36
-29 -80 14 l-38 37 33 33 c17 18 37 33 44 33 6 0 23 -14 37 -31z m-1516 -94
c2 -2 -4 -31 -14 -64 -16 -59 -18 -61 -50 -61 -42 0 -47 9 -33 67 18 79 15 76
57 68 20 -4 38 -8 40 -10z m6030 -31 c249 -6 253 -7 250 -27 -2 -12 -13 -23
-29 -28 -14 -3 -455 -9 -980 -13 -525 -3 -1029 -9 -1120 -12 l-166 -6 -15 38
c-9 22 -14 41 -11 44 17 18 1386 20 2071 4z m-3432 -57 c45 -17 142 -64 161
-79 9 -7 7 -15 -8 -31 -11 -12 -27 -38 -36 -58 l-16 -37 -51 24 c-60 27 -158
54 -198 54 l-28 0 0 84 0 84 68 -13 c37 -8 85 -20 108 -28z m-1191 17 c14 -14
14 -19 2 -37 -24 -36 -46 -45 -62 -24 -13 19 -11 40 8 65 13 17 32 15 52 -4z
m895 -62 l0 -78 -36 -2 c-43 -3 -113 -26 -176 -58 l-48 -24 -14 35 c-8 19 -26
46 -40 60 l-25 25 46 27 c56 32 228 93 266 93 l27 0 0 -78z m1089 24 c43 -69
12 -100 -45 -45 -37 35 -41 48 -22 67 21 21 46 13 67 -22z m-1767 -49 l47 -37
-50 -66 c-87 -115 -137 -239 -160 -396 l-12 -88 -68 0 c-41 0 -69 4 -71 11 -8
24 13 168 37 251 14 49 40 118 59 155 47 95 145 226 159 215 7 -4 33 -25 59
-45z m1626 -57 c30 -47 68 -113 83 -146 32 -71 74 -231 84 -321 l7 -63 -76 0
-76 0 0 30 c0 114 -68 306 -151 429 l-59 86 51 48 c61 57 59 58 137 -63z
m-1915 -1 c-7 -25 -30 -36 -45 -21 -17 17 -1 42 26 42 20 0 23 -4 19 -21z
m4320 12 c435 -6 611 -11 619 -19 9 -9 7 -17 -8 -31 -20 -18 -61 -19 -1118
-22 l-1098 -4 -14 34 c-8 18 -14 35 -14 37 0 12 856 15 1633 5z m-2771 -41
c39 -30 53 -73 38 -110 -29 -71 -97 -90 -144 -41 -42 44 -40 104 3 143 37 33
69 36 103 8z m-2945 -3 c2 -3 -4 -34 -13 -71 -14 -57 -19 -66 -35 -61 -11 3
-28 8 -40 11 -14 4 -18 11 -13 22 3 10 11 39 17 66 10 48 10 48 45 42 19 -3
36 -7 39 -9z m2014 -6 c20 -16 24 -29 24 -71 0 -42 -4 -55 -24 -71 -48 -39
-117 -17 -141 47 -15 38 -12 50 16 83 20 25 34 31 64 31 22 0 47 -8 61 -19z
m1549 -53 c29 -32 26 -66 -7 -74 -29 -8 -49 11 -60 55 -10 42 34 55 67 19z
m-2242 -20 c17 -17 15 -42 -6 -68 -11 -13 -23 -19 -34 -15 -22 9 -26 24 -16
63 9 34 33 43 56 20z m516 -81 c16 -22 39 -40 55 -43 l27 -6 -22 -46 c-12 -26
-30 -83 -39 -127 -9 -44 -19 -87 -21 -96 -4 -14 -18 -17 -79 -15 l-75 1 0 40
c0 78 100 362 119 339 4 -5 20 -26 35 -47z m4204 28 c6 -3 12 -18 12 -35 l0
-30 -632 -2 c-348 -1 -777 -2 -953 -2 l-320 -1 -3 37 -3 37 48 4 c59 5 1833
-3 1851 -8z m-2943 -110 c38 -90 81 -233 72 -241 -1 -1 -36 -3 -78 -6 l-77 -3
-17 79 c-9 44 -29 106 -44 138 l-28 58 29 0 c22 0 35 9 60 45 17 25 33 44 34
42 2 -1 24 -52 49 -112z m-522 -8 c115 -60 181 -169 181 -297 0 -93 -33 -168
-104 -239 -69 -69 -128 -95 -220 -95 -92 0 -165 30 -238 98 -70 65 -96 123
-100 223 -4 71 -1 88 23 142 60 133 208 219 350 204 28 -3 76 -19 108 -36z
m1061 -18 c12 -36 2 -59 -28 -59 -21 0 -26 6 -32 36 -5 26 -3 39 7 45 22 14
43 6 53 -22z m-3674 11 c13 -8 15 -53 18 -288 l3 -280 -33 -5 c-18 -2 -34 -4
-34 -3 -1 0 -4 133 -7 294 l-6 292 22 0 c12 0 29 -5 37 -10z m1308 -23 c2 -10
1 -30 -2 -43 -5 -20 -12 -25 -34 -22 -21 2 -28 9 -30 31 -2 16 -1 35 2 44 8
21 60 13 64 -10z m4764 -23 c43 -5 47 -8 38 -25 -9 -15 -7 -19 7 -19 15 0 16
-2 3 -10 -10 -7 -154 -10 -405 -9 -214 1 -641 -2 -947 -6 -544 -8 -558 -8
-558 11 0 10 -3 29 -6 41 -6 20 -2 22 47 26 76 6 1764 -3 1821 -9z m-6287
-381 c8 -110 7 -113 -13 -113 -20 0 -21 3 -17 193 4 275 8 310 16 162 4 -71
10 -181 14 -242z m6103 217 c41 -6 80 -17 89 -25 8 -9 14 -17 12 -19 -2 -2
-95 -7 -206 -11 -144 -5 -203 -4 -203 4 0 6 5 11 10 11 6 0 10 5 10 10 0 6
-13 10 -30 10 -16 0 -30 4 -30 10 0 5 47 11 108 12 59 2 121 4 137 5 17 2 63
-2 103 -7z m-496 -10 c-109 -8 -132 -20 -41 -21 45 0 58 -3 44 -9 -16 -7 -12
-9 20 -11 101 -6 -323 -17 -730 -18 l-450 -2 -3 30 c-3 28 -1 30 40 34 24 2
306 4 628 4 322 0 543 -3 492 -7z m-4548 -16 c20 -8 21 -73 2 -99 -14 -19 -15
-19 -35 -1 -23 21 -28 75 -9 94 14 14 20 14 42 6z m446 -49 l0 -55 -55 0 -55
0 0 49 c0 55 5 59 68 60 l42 1 0 -55z m2450 -5 l0 -50 -55 0 c-53 0 -55 1 -55
28 0 62 8 72 61 72 l49 0 0 -50z m386 26 c8 -14 14 -35 12 -48 -2 -19 -10 -24
-40 -26 -42 -3 -45 3 -32 67 8 38 37 42 60 7z m-2571 -138 c16 -145 79 -303
162 -410 l45 -56 -47 -44 c-26 -23 -51 -44 -55 -46 -13 -5 -96 104 -141 183
-21 39 -50 104 -63 145 -25 80 -52 251 -42 275 4 11 23 15 70 15 l64 0 7 -62z
m320 15 c4 -26 20 -82 35 -125 27 -73 27 -78 10 -83 -10 -3 -32 -21 -49 -40
l-30 -35 -30 37 c-38 46 -78 153 -87 232 l-7 61 76 0 75 0 7 -47z m1325 32 c0
-45 -35 -177 -60 -227 -52 -102 -51 -101 -72 -67 -10 17 -32 38 -49 47 -33 19
-33 12 0 136 12 44 21 90 21 103 0 22 3 23 80 23 65 0 80 -3 80 -15z m-2100
-29 c0 -63 39 -261 66 -336 53 -149 160 -335 234 -405 16 -16 30 -36 30 -45 0
-18 -91 -120 -107 -120 -15 0 -105 100 -153 170 -76 111 -179 340 -214 477
-16 62 -38 271 -29 286 2 4 42 7 89 7 l84 0 0 -34z m2416 -44 c-7 -92 -36
-199 -75 -286 -32 -72 -116 -200 -154 -235 l-26 -23 -50 47 -50 47 44 56 c85
111 145 262 160 406 l7 66 76 0 75 0 -7 -78z m484 36 c-1 -89 -22 -221 -56
-338 -40 -142 -130 -323 -222 -448 -26 -35 -58 -78 -72 -97 -14 -19 -30 -34
-35 -35 -10 0 -101 98 -119 128 -5 8 10 33 42 70 162 189 258 419 287 690 l7
62 84 0 84 0 0 -32z m2220 8 l0 -24 -157 -6 c-87 -4 -196 -11 -243 -16 -124
-14 -210 -13 -210 3 0 20 22 37 47 37 13 0 23 4 23 9 0 17 30 19 288 20 l252
1 0 -24z m-1808 -31 c6 -9 32 -11 95 -8 66 4 95 1 116 -10 16 -8 24 -18 18
-21 -6 -4 -102 -10 -215 -13 l-204 -6 -3 41 -4 40 95 -5 c59 -4 98 -11 102
-18z m-3119 -62 c6 -34 1 -43 -22 -43 -24 0 -41 20 -41 47 0 19 5 23 29 23 23
0 30 -5 34 -27z m2400 15 c8 -25 -5 -48 -29 -48 -28 0 -37 13 -29 40 7 22 51
28 58 8z m604 -93 c18 3 33 2 33 -3 0 -15 33 -9 48 8 13 16 13 12 -4 -100 -10
-64 -105 -362 -146 -454 -135 -310 -310 -527 -603 -748 -117 -88 -358 -223
-478 -268 -29 -11 -68 -31 -87 -45 l-34 -25 27 0 c25 0 27 -3 26 -37 -1 -21
-3 -30 -6 -20 -8 31 -37 15 -44 -23 -4 -19 -7 33 -8 117 0 83 -4 159 -7 167
-5 12 4 20 32 32 248 101 402 194 564 339 33 29 79 58 109 69 58 20 78 45 92
107 6 24 27 62 48 88 148 178 251 397 316 674 15 62 28 118 30 124 3 10 11 10
32 2 15 -6 42 -8 60 -4z m-2969 -66 c3 -21 -2 -27 -22 -31 -30 -6 -36 -2 -36
27 0 28 9 37 35 33 13 -2 21 -12 23 -29z m2327 -11 c-9 -41 -17 -50 -38 -42
-10 4 -17 17 -17 33 0 34 7 41 37 41 22 0 24 -3 18 -32z m-1597 -58 c56 -83
-21 -180 -107 -136 -51 27 -62 64 -35 121 30 65 103 72 142 15z m938 19 c18
-15 34 -76 27 -97 -23 -65 -99 -83 -147 -36 -60 61 -6 163 78 149 16 -3 35
-10 42 -16z m-3248 -3 c1 -2 5 -28 8 -57 10 -89 73 -415 109 -560 112 -446
334 -824 683 -1161 123 -118 282 -249 382 -313 87 -56 353 -195 373 -195 24 0
25 -7 18 -107 l-6 -91 -70 22 c-162 52 -433 201 -623 343 -114 85 -350 321
-449 447 -237 304 -356 535 -464 896 -44 151 -53 222 -69 546 -5 116 -13 219
-16 229 -7 17 -2 17 57 11 35 -4 65 -9 67 -10z m289 -118 c3 -77 -6 -98 -43
-98 -31 0 -33 6 -41 94 l-6 76 44 0 44 0 2 -72z m3555 7 c-4 -51 -15 -62 -47
-47 -18 8 -23 16 -18 29 26 72 70 84 65 18z m-2184 -4 c13 -36 3 -51 -33 -54
-23 -2 -31 3 -39 24 -13 38 -2 59 33 59 23 0 31 -6 39 -29z m814 -27 c22 -14
71 -33 108 -42 l68 -16 7 -74 c4 -40 5 -75 3 -77 -6 -6 -116 23 -188 51 -74
28 -170 80 -170 93 0 5 11 16 25 25 13 9 32 30 41 47 18 36 40 35 106 -7z
m-2922 -24 l0 -40 -97 1 c-54 1 -111 4 -128 8 l-29 6 23 22 c25 24 95 40 179
42 l52 1 0 -40z m3466 18 c-1 -19 3 -22 24 -19 14 1 28 8 31 13 4 6 10 0 14
-13 4 -13 16 -33 26 -45 19 -20 19 -21 -8 -34 -78 -36 -173 -72 -227 -86 -34
-8 -69 -17 -78 -20 -16 -5 -18 3 -18 70 0 74 0 76 28 82 50 11 187 56 197 65
12 12 13 12 11 -13z m-2335 -57 c51 -51 34 -135 -32 -156 -55 -18 -129 27
-144 87 -6 23 -1 34 28 63 47 47 104 49 148 6z m-391 -24 c0 -1 11 -56 25
-122 13 -65 23 -120 21 -122 -1 -1 -16 -6 -33 -9 -26 -5 -31 -2 -41 23 -10 25
-22 87 -36 196 -5 37 -4 37 30 37 19 0 34 -1 34 -3z m1445 -42 c0 -37 -28 -46
-45 -15 -16 29 -5 52 22 48 18 -2 23 -9 23 -33z m2015 20 c10 -12 9 -20 -4
-40 -22 -34 -44 -41 -63 -23 -13 14 -13 19 1 47 18 34 46 40 66 16z m-362 -81
c18 -23 32 -46 32 -52 0 -14 -66 -78 -118 -114 -111 -76 -380 -168 -494 -168
l-38 0 0 75 0 75 39 0 c147 0 371 90 479 192 30 28 57 47 61 42 4 -5 22 -28
39 -50z m-1267 20 c27 -30 105 -82 176 -118 68 -34 178 -66 275 -80 l83 -11 3
-71 3 -71 -53 4 c-119 9 -197 26 -276 58 -90 37 -211 107 -281 164 -25 20 -49
39 -55 43 -7 5 8 26 39 57 28 28 53 51 56 51 3 0 16 -12 30 -26z m2782 -3 c4
-4 -4 -44 -18 -88 -30 -96 -143 -380 -181 -454 -66 -133 -191 -293 -218 -283
-10 4 -16 -17 -24 -76 -5 -44 -16 -87 -23 -96 -19 -24 -102 -63 -148 -70 -22
-4 -39 -10 -36 -14 9 -14 -106 -106 -235 -187 -63 -39 -184 -103 -195 -103 -3
0 -5 31 -5 69 l0 68 38 7 c20 3 97 42 171 86 74 44 141 80 148 80 10 0 6 13
-12 43 -14 24 -25 58 -25 76 0 44 75 180 107 192 13 5 59 9 101 9 l77 0 65 76
c138 162 244 398 295 659 4 18 11 20 57 17 29 -2 57 -7 61 -11z m290 -107
c-13 -59 -48 -186 -79 -283 -108 -348 -266 -604 -544 -881 -103 -103 -205
-185 -349 -278 -119 -78 -386 -220 -396 -211 -2 3 -5 24 -7 47 l-3 42 76 33
c184 81 480 285 613 421 153 159 332 399 407 548 78 154 174 431 198 573 18
99 15 95 64 95 l44 0 -24 -106z m-5643 44 l0 -43 -347 2 c-388 3 -413 5 -413
33 0 10 -3 25 -6 34 -6 14 32 16 380 16 l386 0 0 -42z m5880 18 c0 -2 -7 -9
-15 -16 -12 -10 -15 -10 -15 4 0 9 7 16 15 16 8 0 15 -2 15 -4z m-3557 -54
l37 -38 -41 -39 -40 -40 -25 28 c-13 15 -24 39 -24 51 0 23 34 76 49 76 4 0
24 -17 44 -38z m1741 -1 c30 -32 29 -49 -4 -89 l-19 -23 -30 33 c-35 38 -37
51 -13 83 22 32 33 31 66 -4z m-1596 -133 c4 -22 -27 -50 -52 -46 -27 4 -34
49 -10 72 14 15 19 15 38 3 11 -8 22 -21 24 -29z m1465 11 c13 -20 2 -65 -18
-73 -18 -6 -55 30 -55 55 0 36 54 49 73 18z m-3939 -15 c3 -9 6 -27 6 -40 l0
-24 -302 0 c-167 0 -313 3 -325 6 -18 5 -23 14 -23 40 l0 34 319 0 c282 0 320
-2 325 -16z m821 -31 c22 -55 55 -159 55 -175 0 -25 -49 -44 -66 -26 -21 23
-69 192 -59 208 11 17 62 11 70 -7z m1775 -31 c18 -15 20 -21 11 -45 -12 -32
-30 -34 -61 -9 -18 14 -22 25 -16 45 8 32 33 35 66 9z m1577 -160 c-95 -96
-313 -220 -519 -293 -113 -40 -327 -89 -392 -89 l-37 0 3 88 3 87 50 8 c241
40 345 72 505 152 93 47 234 142 280 190 l34 35 63 -62 63 -62 -53 -54z
m-1877 116 c250 -189 518 -299 755 -310 l60 -3 3 -87 3 -88 -29 0 c-52 0 -196
21 -274 41 -161 40 -331 117 -498 224 -77 50 -190 143 -190 157 0 13 92 108
105 108 6 0 35 -19 65 -42z m1501 16 c12 -23 12 -27 -6 -40 -29 -22 -57 -13
-66 18 -13 49 48 67 72 22z m-2513 -14 c49 -30 59 -61 36 -111 -10 -23 -24
-48 -32 -55 -31 -31 -122 -2 -147 47 -23 43 -18 68 19 105 40 40 75 44 124 14z
m1467 -40 c15 -17 16 -24 7 -45 -12 -25 -27 -30 -56 -19 -18 7 -21 36 -6 65
14 24 32 24 55 -1z m893 -26 c2 -25 -2 -33 -24 -43 -32 -14 -41 -7 -50 36 -5
25 -2 32 12 36 42 11 59 3 62 -29z m-1627 -3 c29 -28 32 -58 10 -80 -24 -24
-73 -28 -90 -8 -23 29 -24 74 -2 96 24 24 54 21 82 -8z m2399 -5 c16 -31 16
-67 0 -106 -14 -34 -15 -35 -55 -11 -38 22 -43 63 -15 109 23 38 52 41 70 8z
m-4414 -13 c-3 -8 -6 -26 -6 -39 l0 -24 -360 0 -360 0 0 38 0 37 366 1 c317 1
364 0 360 -13z m2938 -13 c32 -12 36 -55 7 -65 -25 -8 -71 11 -71 29 0 44 18
54 64 36z m286 -50 l0 -60 -44 0 c-69 0 -76 6 -76 59 0 26 3 51 7 54 3 4 30 7
60 7 l53 0 0 -60z m242 34 c11 -23 10 -28 -7 -40 -27 -20 -48 -14 -59 19 -8
22 -7 30 4 37 26 17 50 11 62 -16z m-2106 -106 c27 -29 61 -69 75 -88 l27 -35
30 18 c40 23 83 22 115 -3 26 -21 47 -26 47 -11 0 13 70 101 81 101 38 0 -2
-79 -54 -106 -26 -14 -27 -16 -12 -44 59 -113 -86 -220 -197 -145 -41 28 -55
69 -44 133 5 36 2 42 -69 120 -74 82 -81 92 -68 105 12 13 20 7 69 -45z m-418
-21 c17 -28 38 -74 46 -100 14 -48 54 -106 154 -225 74 -89 80 -103 53 -141
-27 -37 -46 -31 -85 27 -79 115 -141 211 -168 261 -114 205 -121 231 -58 231
20 0 32 -11 58 -53z m-1125 -16 l177 -1 0 -29 c0 -28 -2 -28 -62 -33 -35 -3
-106 -4 -158 -2 -52 1 -218 2 -367 3 l-273 1 0 28 c0 16 2 31 4 33 4 4 101 4
679 0z m177 -206 l0 -35 -439 0 c-298 0 -442 3 -446 11 -4 5 -4 21 -1 35 l6
24 440 0 440 0 0 -35z m1998 -137 c7 -7 12 -38 12 -69 l0 -58 43 -3 c34 -2 42
-7 42 -23 0 -16 -8 -21 -45 -25 -44 -5 -45 -6 -50 -45 -5 -39 -6 -40 -50 -43
-107 -8 -182 100 -114 163 31 29 70 32 96 8 17 -15 18 -14 18 45 0 53 3 62 18
62 10 0 23 -5 30 -12z m-2000 -36 l-3 -37 -355 4 c-195 1 -357 5 -359 7 -2 1
-1 14 3 28 6 25 9 25 104 28 53 2 213 4 355 5 l258 3 -3 -38z m3222 23 c18
-22 0 -37 -36 -33 -21 2 -30 9 -32 26 -3 18 1 22 26 22 16 0 35 -7 42 -15z
m-480 -52 c4 -4 1 -1185 -3 -1190 -7 -5 -67 -6 -67 0 0 4 0 277 0 608 l0 601
33 -7 c17 -4 34 -9 37 -12z m889 -115 c0 -93 -14 -226 -18 -180 0 6 -12 12
-25 12 -22 0 -25 -5 -29 -42 -3 -24 -4 34 -3 127 0 94 5 176 9 183 5 6 21 12
38 12 l29 0 -1 -112z m-715 50 c3 -29 6 -297 6 -595 l0 -543 -37 0 -38 0 -3
595 -3 595 34 0 c34 0 34 -1 41 -52z m486 15 c0 9 5 17 10 17 11 0 12 -5 15
-60 1 -19 5 -43 9 -52 7 -15 3 -18 -16 -18 -21 0 -26 -7 -35 -47 -10 -43 -11
-37 -11 66 0 100 2 113 14 96 12 -17 14 -17 14 -2z m-305 -573 l0 -580 -37 0
-37 0 -3 568 c-2 312 -1 573 1 580 2 7 19 12 40 12 l36 0 0 -580z m164 168
c-1 -216 -4 -383 -6 -370 -3 13 -12 22 -23 22 -15 0 -20 -9 -23 -47 -2 -27 -4
132 -5 351 -2 359 0 401 15 418 42 47 43 40 42 -374z m-1901 314 l53 -47 -23
-32 c-13 -18 -32 -33 -42 -33 -20 0 -126 101 -126 119 0 12 49 40 70 40 8 0
39 -21 68 -47z m-1348 -17 l0 -35 -368 0 c-203 0 -371 2 -374 5 -2 3 -3 18 0
35 l4 30 369 0 369 0 0 -35z m2216 -520 l-1 -525 -40 0 -40 0 0 515 0 514 35
10 c19 5 38 9 41 10 4 1 6 -235 5 -524z m178 508 c-1 -7 -2 -240 -2 -518 l-2
-505 -35 0 -35 0 -2 133 c-1 72 -2 307 -3 520 l0 388 40 -3 c24 -2 40 -8 39
-15z m172 -6 c0 -1 -2 -230 -4 -509 l-4 -508 -34 0 -34 0 0 516 0 516 38 -7
c20 -4 37 -8 38 -8z m-1005 -174 c44 -42 79 -82 79 -88 0 -16 -39 -65 -51 -65
-16 0 -170 142 -182 167 -10 22 -8 28 12 44 39 31 59 23 142 -58z m-1553 16
l3 -37 -308 -1 c-169 -1 -338 2 -375 5 -63 6 -68 8 -68 30 0 21 5 24 43 25 23
1 105 4 182 8 77 4 226 7 330 6 l190 0 3 -36z m624 10 c10 -15 4 -126 -7 -137
-8 -8 -123 -5 -136 4 -5 3 -9 34 -9 70 0 58 2 66 23 74 30 13 117 6 129 -11z
m5263 -54 c-1 -89 -5 -95 -69 -95 -84 0 -86 2 -86 79 0 37 3 71 7 75 4 4 39 5
78 4 l70 -3 0 -60z m-2518 -287 c-1 -57 -3 -11 -3 102 0 113 2 159 3 103 2
-57 2 -149 0 -205z m1783 209 c0 -2 -12 -14 -27 -28 l-28 -24 24 28 c23 25 31
32 31 24z m-3371 -74 c32 -27 42 -42 38 -59 -3 -19 -1 -21 13 -12 13 8 31 4
78 -22 71 -37 97 -63 88 -85 -4 -12 -14 -15 -43 -9 -53 9 -142 50 -149 69 -3
8 -16 15 -28 15 -12 0 -38 11 -59 25 -39 27 -47 57 -27 96 16 28 41 23 89 -18z
m-942 -94 c72 -35 150 -140 155 -211 2 -25 -1 -32 -12 -31 -8 2 -36 7 -62 12
l-48 8 0 -37 c0 -21 -7 -43 -15 -50 -13 -11 -13 -8 -4 19 24 67 -38 151 -109
151 -93 -1 -150 -96 -108 -179 33 -64 104 -78 171 -35 l40 25 -35 -30 c-19
-17 -45 -32 -57 -32 -13 -1 -27 -3 -33 -4 -5 -1 -16 -4 -22 -5 -7 -1 -2 -6 12
-10 17 -5 19 -8 8 -9 -10 -1 -18 -7 -18 -15 0 -8 -9 -18 -20 -21 -16 -5 -18
-10 -10 -24 5 -10 6 -22 2 -26 -4 -4 0 -6 8 -4 8 1 22 -1 30 -4 8 -3 24 -8 35
-10 11 -3 2 -5 -21 -6 -85 -2 -202 86 -246 187 -57 128 19 297 156 346 62 22
152 20 203 -5z m4900 1 c68 -30 139 -104 159 -162 23 -70 15 -163 -19 -221
-35 -59 -104 -120 -160 -142 -173 -66 -382 109 -364 306 8 94 76 183 169 224
49 21 164 19 215 -5z m-4451 -366 c16 -37 10 -103 -10 -116 -14 -9 -63 -10
-105 -2 l-32 7 3 66 3 66 35 6 c79 14 90 11 106 -27z m3939 13 c4 -13 5 -48 3
-78 l-3 -54 -69 -3 c-81 -3 -86 1 -86 75 0 55 5 62 54 74 64 15 95 11 101 -14z
m-900 -169 l30 -3 -37 -12 c-37 -11 -38 -11 -38 15 0 16 3 22 8 15 4 -6 21
-13 37 -15z"/>
<path d="M2558 7764 c-35 -18 -48 -43 -48 -89 0 -100 107 -160 179 -100 86 73
46 206 -63 205 -22 -1 -53 -7 -68 -16z"/>
<path d="M8945 5870 c-3 -5 -1 -10 4 -10 6 0 11 5 11 10 0 6 -2 10 -4 10 -3 0
-8 -4 -11 -10z"/>
<path d="M5005 5488 c-132 -46 -173 -201 -82 -305 54 -61 129 -79 204 -48 79
33 117 97 111 186 -9 128 -119 207 -233 167z"/>
<path d="M7888 5503 c6 -2 18 -2 25 0 6 3 1 5 -13 5 -14 0 -19 -2 -12 -5z"/>
<path d="M5380 4740 c0 -5 5 -10 10 -10 6 0 10 5 10 10 0 6 -4 10 -10 10 -5 0
-10 -4 -10 -10z"/>
<path d="M5272 3500 c0 -14 2 -19 5 -12 2 6 2 18 0 25 -3 6 -5 1 -5 -13z"/>
<path d="M7480 2833 c-43 -17 -60 -46 -60 -101 0 -48 4 -58 34 -88 30 -30 40
-34 88 -34 89 0 135 51 122 136 -10 70 -30 87 -105 91 -35 1 -71 0 -79 -4z"/>
</g>
</svg>
